<?xml version="1.0" encoding="UTF-8"?>
<svg width="36px" height="24px" viewBox="0 0 36 24" version="1.1" xmlns="http://www.w3.org/2000/svg" xmlns:xlink="http://www.w3.org/1999/xlink">
    <!-- Generator: sketchtool 64 (101010) - https://sketch.com -->
    <title>A93AF0DF-FEED-45FB-844A-A1BE154B3C1D</title>
    <desc>Created with sketchtool.</desc>
    <g id="*Styles" stroke="none" stroke-width="1" fill="none" fill-rule="evenodd">
        <g id="Icons" transform="translate(-156.000000, -388.000000)" fill-rule="nonzero">
            <g id="atoms-/-icon-24-/-payment-Paypal" transform="translate(156.000000, 388.000000)">
                <rect id="card_bg-copy" fill="#F2F0EC" x="0" y="0" width="36" height="24"></rect>
                <g id="paypal-color" transform="translate(12.000000, 4.000000)">
                    <g id="paypal">
                        <path d="M3.755,14.99 L4.01,13.34 L0.665,13.34 L2.6,1.145 C2.58583124,1.11143396 2.58583124,1.07356604 2.6,1.04 L2.705,1.04 L7.37,1.04 C8.52794117,0.887599159 9.69585859,1.23688287 10.58,2 C10.8319448,2.26336417 11.0081402,2.5898439 11.09,2.945 C11.1805792,3.3803383 11.1805792,3.8296617 11.09,4.265 L11.09,4.64 L11.36,4.79 C11.8876377,5.05353037 12.244064,5.56836842 12.305,6.155 C12.3922513,6.6159071 12.3922513,7.0890929 12.305,7.55 C12.2092626,8.10920741 12.0163497,8.64733287 11.735,9.14 C11.5044005,9.52699689 11.1983336,9.86367051 10.835,10.13 C10.4608197,10.3858781 10.044442,10.5737559 9.605,10.685 C9.11275989,10.7960183 8.60960235,10.8513657 8.105,10.85 L7.745,10.85 C7.48567222,10.8548672 7.23623694,10.9503956 7.04,11.12 C6.84231088,11.2899104 6.70976082,11.5231985 6.665,11.78 L6.665,11.93 L6.215,14.84 L6.215,14.945 C6.215,14.945 6.215,14.945 6.215,14.945 L3.755,14.945 L3.755,14.99 Z" id="Path" fill="#253D80"></path>
                        <path d="M11.6,4.31 L11.6,4.58 C11.2641754,7.24033496 8.84858416,9.13399792 6.185,8.825 L4.82,8.825 C4.49112199,8.82276992 4.21323495,9.06834451 4.175,9.395 L3.47,13.895 L3.275,15.155 C3.25708821,15.2563533 3.28536384,15.360411 3.35210654,15.4387611 C3.41884923,15.5171112 3.51708809,15.5615706 3.62,15.560042 L6.035,15.560042 C6.32597237,15.5634611 6.57525244,15.3525318 6.62,15.065 L6.62,14.945 L7.085,12.05 L7.085,11.885 C7.12886763,11.6030776 7.36971206,11.3939232 7.655,11.39 L8,11.39 C10.3286947,11.6638751 12.4434172,10.0109117 12.74,7.685 C13.0288208,6.72438765 12.8451754,5.68373066 12.245,4.88 C12.064499,4.6542073 11.846278,4.46136084 11.6,4.31 L11.6,4.31 Z" id="Path" fill="#189BD7"></path>
                        <path d="M11,4.055 L10.715,4.055 L10.4,4.055 C10.0031169,3.99238399 9.60178303,3.96228395 9.2,3.965 L5.495,3.965 C5.41055371,3.95127912 5.32444629,3.95127912 5.24,3.965 C5.06898663,4.04834722 4.95082806,4.21151858 4.925,4.4 L4.145,9.32 L4.145,9.47 C4.18323495,9.14334451 4.46112199,8.89776992 4.79,8.9 L6.155,8.9 C8.81858416,9.20899792 11.2341754,7.31533496 11.57,4.655 L11.57,4.385 L11.06,4.175 L11,4.055 Z" id="Path" fill="#242E65"></path>
                        <path d="M5,4.325 C5.02582806,4.13651858 5.14398663,3.97334722 5.315,3.89 C5.39944629,3.87627912 5.48555371,3.87627912 5.57,3.89 L9.23,3.89 C9.63178303,3.88728395 10.0331169,3.91738399 10.43,3.98 L10.745,3.98 L11.03,3.98 L11,5 L11.675,4.19 C11.8606992,3.27656556 11.6112629,2.32870757 11,1.625 C10.0155274,0.764052913 8.71486539,0.355895374 7.415,0.5 L2.75,0.5 C2.41792929,0.496899934 2.13526987,0.741014883 2.09,1.07 L0.155,13.37 C0.137764373,13.4847898 0.170610626,13.6014575 0.245202865,13.6903944 C0.319795105,13.7793313 0.428962506,13.8319876 0.545,13.835 L3.5,13.835 L4.22,9.245 L5,4.325 Z" id="Path" fill="#253D80"></path>
                    </g>
                </g>
            </g>
        </g>
    </g>
</svg>