<?xml version="1.0" encoding="UTF-8"?>
<svg width="36px" height="24px" viewBox="0 0 36 24" version="1.1" xmlns="http://www.w3.org/2000/svg" xmlns:xlink="http://www.w3.org/1999/xlink">
    <!-- Generator: sketchtool 64 (101010) - https://sketch.com -->
    <title>E55BF519-D6E3-41DC-946A-3E0AF358C725</title>
    <desc>Created with sketchtool.</desc>
    <g id="*Styles" stroke="none" stroke-width="1" fill="none" fill-rule="evenodd">
        <g id="Icons" transform="translate(-68.000000, -388.000000)" fill="#296DB6" fill-rule="nonzero">
            <g id="atoms-/-icon-24-/-payment-AmEx" transform="translate(68.000000, 388.000000)">
                <g id="americanexpress-color">
                    <g id="amex">
                        <path d="M0,24 L0,11.55 L1.71,11.55 L2.0625,10.635 L2.9025,10.635 L3.2475,11.55 L17.0025,11.55 L17.0025,10.455 L17.8725,11.55 L21.48,11.55 L21.48,10.995 C22.0089949,11.3715456 22.6458801,11.5662956 23.295,11.55 L25.4475,11.55 L25.7925,10.635 L26.6325,10.635 L27,11.55 L30.675,11.55 L30.675,10.365 L31.425,11.55 L33.96,11.55 L33.96,5.43 L31.2675,5.43 L31.2675,6.675 L30.465,5.43 L28.11,5.43 L28.11,7.005 L27.36,5.43 L23.355,5.43 C22.677448,5.41036828 22.0142979,5.62788152 21.48,6.045 L21.48,5.43 L8.25,5.43 L7.8,6.75 L7.35,5.4 L4.35,5.4 L4.35,6.975 L3.645,5.4 L1.2,5.4 L0,8.25 L0,-7.00820695e-13 L36,-1.32386506e-13 L36,13.425 L14.145,13.425 L13.5,14.325 L12.87,13.425 L6.66,13.425 L6.66,19.545 L12.855,19.545 L13.5,18.63 L14.13,19.545 L17.9175,19.545 L17.9175,18.165 L18.3375,18.165 C18.7187643,18.1683328 19.0982502,18.1126749 19.4625,18 L19.4625,19.545 L22.035,19.545 L22.035,18.45 L22.905,19.545 L34.62,19.545 C35.1015371,19.5534091 35.5753451,19.423242 35.985,19.17 L35.984,21 L36,21 L36,24 L0,24 Z" id="Path-2"></path>
                        <path d="M11.0325,15.27 L11.0325,14.37 L7.635,14.37 L7.635,18.6 L11.0325,18.6 L11.0325,17.7 L8.655,17.7 L8.655,16.95 L10.9875,16.95 L10.9875,16.035 L8.655,16.035 L8.655,15.285 L11.0325,15.27 Z M14.1,16.5 L15.795,14.4 L14.55,14.4 L13.5,15.705 L12.4575,14.37 L11.1825,14.37 L12.9,16.5 L11.25,18.6 L12.48,18.6 L13.5,17.25 L14.52,18.615 L15.81,18.615 L14.1,16.5 Z M18.3225,14.4 L15.99,14.4 L15.99,18.6 L17.0175,18.6 L17.0175,17.205 L18.2925,17.205 C18.6855825,17.2347887 19.0729179,17.0968744 19.3587196,16.8253628 C19.6445213,16.5538511 19.8021047,16.1740926 19.7925,15.78 C19.8089441,15.3905698 19.6571993,15.0128602 19.3759043,14.7430466 C19.0946093,14.473233 18.7109074,14.337351 18.3225,14.37 L18.3225,14.4 Z M18.2325,16.335 L17.0175,16.335 L17.0175,15.27 L18.2325,15.27 C18.5183074,15.27 18.75,15.5016926 18.75,15.7875 C18.75,16.0733074 18.5183074,16.305 18.2325,16.305 L18.2325,16.335 Z M22.95,17.085 C23.6873001,16.9980151 24.2144848,16.3298001 24.1275,15.5925 C24.0405151,14.8551999 23.3723001,14.3280152 22.635,14.415 L20.34,14.415 L20.34,18.6 L21.36,18.6 L21.36,17.1 L21.825,17.1 L23.085,18.6 L24.3675,18.6 L22.95,17.085 Z M22.545,16.245 L21.36,16.245 L21.36,15.27 L22.545,15.27 C22.6783417,15.2526448 22.8126677,15.2938612 22.9133277,15.3830172 C23.0139876,15.4721731 23.0711247,15.6005383 23.07,15.735 C23.0737074,15.870289 23.0173241,16.0002766 22.9160103,16.0900116 C22.8146966,16.1797467 22.678851,16.2200189 22.545,16.2 L22.545,16.245 Z M28.02,15.315 L28.02,14.415 L24.6075,14.415 L24.6075,18.6 L28.02,18.6 L28.02,17.7 L25.6425,17.7 L25.6425,16.95 L27.96,16.95 L27.96,16.035 L25.6425,16.035 L25.6425,15.285 L28.02,15.315 Z M30.8475,16.065 L29.865,16.065 C29.7131442,16.0955226 29.5578709,16.0314493 29.4717309,15.9027181 C29.3855909,15.7739869 29.3855909,15.6060131 29.4717309,15.4772819 C29.5578709,15.3485507 29.7131442,15.2844774 29.865,15.315 L31.6875,15.315 L32.0925,14.415 L29.895,14.415 C29.5211048,14.371674 29.1467109,14.4918969 28.8679396,14.7448028 C28.5891684,14.9977086 28.4331717,15.3586648 28.44,15.735 C28.4172132,16.085181 28.5518021,16.4272772 28.8070876,16.6680578 C29.062373,16.9088384 29.4117487,17.0232088 29.76,16.98 L30.75,16.98 C30.9018558,16.9494774 31.0571291,17.0135507 31.1432691,17.1422819 C31.2294091,17.2710131 31.2294091,17.4389869 31.1432691,17.5677181 C31.0571291,17.6964493 30.9018558,17.7605226 30.75,17.73 L28.56,17.73 L28.56,18.63 L30.75,18.63 C31.1279556,18.6609063 31.5008066,18.5268289 31.7725237,18.2623001 C32.0442408,17.9977713 32.1882641,17.6286483 32.1675,17.25 C32.1864516,16.9033344 32.0494671,16.5663424 31.794022,16.3312168 C31.538577,16.0960913 31.1914109,15.9874446 30.8475,16.035 L30.8475,16.065 Z M33.7725,15.315 L35.595,15.315 L36,14.4 L36,14.4 L33.8025,14.4 C33.4286048,14.356674 33.0542109,14.4768969 32.7754396,14.7298028 C32.4966684,14.9827086 32.3406717,15.3436648 32.3475,15.72 C32.3247132,16.070181 32.4593021,16.4122772 32.7145876,16.6530578 C32.969873,16.8938384 33.3192487,17.0082088 33.6675,16.965 L34.635,16.965 C34.7868558,16.9344774 34.9421291,16.9985507 35.0282691,17.1272819 C35.1144091,17.2560131 35.1144091,17.4239869 35.0282691,17.5527181 C34.9421291,17.6814493 34.7868558,17.7455226 34.635,17.715 L32.4675,17.715 L32.4675,18.615 L34.62,18.615 C35.2249442,18.6751979 35.7934745,18.3167766 36,17.745 L36,16.74 C35.7838119,16.2653608 35.2888188,15.9816452 34.77,16.035 L33.75,16.035 C33.5981442,16.0655226 33.4428709,16.0014493 33.3567309,15.8727181 C33.2705909,15.7439869 33.2705909,15.5760131 33.3567309,15.4472819 C33.4428709,15.3185507 33.5981442,15.2544774 33.75,15.285 L33.7725,15.315 Z" id="Shape"></path>
                        <path d="M3.1725,6.375 L1.8375,6.375 L0,10.605 L1.11,10.605 L1.5,9.75 L3.4725,9.75 L3.8325,10.635 L4.9875,10.635 L3.1725,6.375 Z M1.785,8.895 L2.1975,7.905 L2.4675,7.245 L2.7375,7.905 L3.1425,8.895 L1.785,8.895 Z M8.775,6.375 L7.95,8.82 L7.815,9.285 L7.815,9.285 L7.68,8.82 L6.84,6.375 L5.1825,6.375 L5.1825,10.605 L6.18,10.605 L6.18,7.83 L6.18,7.185 L6.18,7.185 L6.39,7.83 L7.35,10.605 L8.25,10.605 L9.2325,7.83 L9.4275,7.185 L9.4275,7.185 L9.4275,7.83 L9.4275,10.605 L10.4175,10.605 L10.4175,6.375 L8.775,6.375 Z M14.625,7.275 L14.625,6.375 L11.25,6.375 L11.25,10.605 L14.625,10.605 L14.625,9.705 L12.2475,9.705 L12.2475,8.955 L14.565,8.955 L14.565,8.04 L12.2475,8.04 L12.2475,7.29 L14.625,7.275 Z M17.9325,9.045 C18.6039528,8.96404237 19.1039569,8.38611547 19.0875,7.71 C19.0929508,7.3245919 18.9306186,6.95584416 18.6426911,6.69958869 C18.3547636,6.44333321 17.9696735,6.32487517 17.5875,6.375 L15.3,6.375 L15.3,10.605 L16.3425,10.605 L16.3425,9.105 L16.8075,9.105 L18.0675,10.605 L19.3425,10.605 L17.9325,9.045 Z M17.5275,8.205 L16.3425,8.205 L16.3425,7.275 L17.5275,7.275 C17.6603348,7.26014229 17.7932476,7.30224054 17.8933063,7.39086389 C17.9933649,7.47948724 18.0512067,7.60634315 18.0525,7.74 C18.0562074,7.87528896 17.9998241,8.00527662 17.8985103,8.09501164 C17.7971966,8.18474667 17.661351,8.22501895 17.5275,8.205 L17.5275,8.205 Z M19.5825,6.375 L19.5825,10.605 L20.61,10.605 L20.61,6.375 L19.5825,6.375 Z M23.3325,7.29 L24.435,7.29 L24.435,6.375 L23.25,6.375 C22.6921726,6.33974097 22.1468376,6.55027567 21.7574181,6.95123345 C21.3679987,7.35219124 21.1734725,7.90343953 21.225,8.46 L21.225,8.52 C21.162338,9.06859893 21.3446715,9.61692715 21.7233771,10.0187597 C22.1020826,10.4205923 22.6386534,10.6350711 23.19,10.605 L23.25,10.605 L23.6625,9.705 L23.325,9.705 C23.0137389,9.72099771 22.7114568,9.59789003 22.4999356,9.36898354 C22.2884144,9.14007705 22.1895171,8.8290316 22.23,8.52 L22.23,8.46 C22.1943424,8.1533805 22.2954137,7.84660409 22.5063443,7.62122611 C22.717275,7.39584813 23.0166933,7.27470421 23.325,7.29 L23.3325,7.29 Z M26.9175,6.375 L25.5675,6.375 L23.7525,10.605 L24.8475,10.605 L25.2075,9.75 L27.21,9.75 L27.57,10.635 L28.725,10.635 L26.9175,6.375 Z M25.5375,8.895 L25.9275,7.905 L26.1975,7.245 L26.1975,7.245 L26.4525,7.905 L26.8575,8.895 L25.5375,8.895 Z M31.9575,6.375 L31.9575,8.625 L31.9575,9.135 L31.9575,9.135 L31.6725,8.655 L30.1725,6.405 L28.92,6.405 L28.92,10.635 L29.925,10.635 L29.925,8.25 L29.925,7.755 L29.925,7.755 L30.195,8.22 L31.7625,10.605 L33,10.605 L33,6.375 L31.9575,6.375 Z" id="Shape"></path>
                    </g>
                </g>
            </g>
        </g>
    </g>
</svg>