<?xml version="1.0" encoding="UTF-8"?>
<svg width="36px" height="24px" viewBox="0 0 36 24" version="1.1" xmlns="http://www.w3.org/2000/svg" xmlns:xlink="http://www.w3.org/1999/xlink">
    <!-- Generator: sketchtool 64 (101010) - https://sketch.com -->
    <title>4992A658-4335-43CE-86F2-3A2086B3BBD5</title>
    <desc>Created with sketchtool.</desc>
    <g id="*Styles" stroke="none" stroke-width="1" fill="none" fill-rule="evenodd">
        <g id="Icons" transform="translate(-24.000000, -388.000000)" fill-rule="nonzero">
            <g id="atoms-/-icon-24-/-payment-MC" transform="translate(24.000000, 388.000000)">
                <g id="mastercard-color_large">
                    <rect id="card_bg" fill="#F2F0EC" x="0" y="0" width="36" height="24"></rect>
                    <g id="mastercard" transform="translate(3.000000, 2.000000)">
                        <g id="Group" opacity="0" fill="#FFFFFF">
                            <rect id="Rectangle" x="0.4875" y="0.153846154" width="29.0325" height="19.6923077"></rect>
                        </g>
                        <rect id="Rectangle" fill="#F26122" x="11.175" y="3.58461538" width="7.6575" height="12.8307692"></rect>
                        <path d="M12,10 C11.9873514,7.50271869 13.0932803,5.13773223 15,3.58461538 C11.7376886,0.953303731 7.051461,1.33540005 4.23547049,4.46231223 C1.41947999,7.58922441 1.41947999,12.4107756 4.23547049,15.5376878 C7.051461,18.6645999 11.7376886,19.0466963 15,16.4153846 C13.0932803,14.8622678 11.9873514,12.4972813 12,10 Z" id="Path" fill="#DC052D"></path>
                        <path d="M27.87,10 C27.8680401,13.1225725 26.1291383,15.9703062 23.3909003,17.3352518 C20.6526624,18.7001974 17.3950987,18.3430812 15,16.4153846 C18.4500427,13.6291974 19.0474898,8.50330472 16.335,4.96153846 C15.9461629,4.44866928 15.4978613,3.9862896 15,3.58461538 C17.3950987,1.65691878 20.6526624,1.29980265 23.3909003,2.66474821 C26.1291383,4.02969378 27.8680401,6.8774275 27.87,10 L27.87,10 Z" id="Path" fill="#F69E1E"></path>
                    </g>
                </g>
            </g>
        </g>
    </g>
</svg>