<?xml version="1.0" encoding="UTF-8"?>
<svg width="36px" height="24px" viewBox="0 0 36 24" version="1.1" xmlns="http://www.w3.org/2000/svg" xmlns:xlink="http://www.w3.org/1999/xlink">
    <!-- Generator: sketchtool 64 (101010) - https://sketch.com -->
    <title>F35FE21F-656A-4AE5-8854-198461F5FAD9</title>
    <desc>Created with sketchtool.</desc>
    <g id="*Styles" stroke="none" stroke-width="1" fill="none" fill-rule="evenodd">
        <g id="Icons" transform="translate(-112.000000, -388.000000)" fill-rule="nonzero">
            <g id="atoms-/-icon-24-/-payment-Visa" transform="translate(112.000000, 388.000000)">
                <g id="visa-color_large">
                    <rect id="card_bg" fill="#2A2A6C" x="0" y="0" width="36" height="24"></rect>
                    <path d="M17.9072513,8.11764433 L16.4232715,14.9189572 L14.6424958,14.9189572 L16.1264755,8.11764433 L17.9072513,8.11764433 Z M25.3716695,12.5293067 L26.3065767,9.97789531 L26.8482293,12.5293067 L25.3716695,12.5293067 Z M27.3527825,14.9410155 L29,14.9410155 L27.5605396,8.13970264 L26.0765599,8.13970264 C25.7500563,8.14266191 25.4573747,8.33988479 25.33457,8.63969105 L22.6708263,14.9410155 L24.5406408,14.9410155 L24.9042159,13.9263332 L27.1376054,13.9263332 L27.3527825,14.9410155 Z M22.7227656,12.7351843 C22.7301855,10.9043444 20.2370995,10.7719945 20.2370995,10.0367175 C20.2370995,9.79407604 20.4745363,9.53672907 20.9790894,9.47055413 C21.5795807,9.41167991 22.1849182,9.51589305 22.7301855,9.77201773 L23.0418212,8.3014636 C22.5102717,8.10393724 21.9474555,8.00185376 21.3797639,8 C19.6286678,8 18.4118044,8.9264491 18.4118044,10.2499478 C18.4118044,11.2278663 19.2947723,11.7719713 19.9625632,12.0954933 C20.6303541,12.4190152 20.8900506,12.6469511 20.8826307,12.9410619 C20.8826307,13.3969337 20.3335582,13.6028112 19.8215852,13.610164 C19.1900429,13.6182209 18.5668808,13.4663706 18.0111298,13.1689978 L17.6920742,14.6395519 C18.3208986,14.882814 18.9907458,15.0050906 19.6657673,14.9998377 C21.5281619,14.9998377 22.7524452,14.0880941 22.7598651,12.6763621 M15.4067454,8.0955791 L12.5278246,14.8968989 L10.591231,14.8968989 L9.17403035,9.46320136 C9.14913246,9.2045751 8.98835362,8.97816693 8.75109612,8.86762694 C8.1940585,8.60424227 7.6057146,8.41154885 7,8.29411083 L7.04451939,8.0955791 L10.0644182,8.0955791 C10.4731108,8.09393804 10.8223471,8.38701204 10.888027,8.78674646 L11.6300169,12.7204788 L13.4775717,8.0955791 L15.4067454,8.0955791 Z" id="visa-logo" fill="#FFFFFF"></path>
                </g>
            </g>
        </g>
    </g>
</svg>